<svg id="Group_2443" data-name="Group 2443" xmlns="http://www.w3.org/2000/svg" width="347.507" height="406.772" viewBox="0 0 347.507 406.772">
  <path id="Path_283" data-name="Path 283" d="M94.271,364.135H40.021V218.285H0V406.772H134.3V269.566H94.271Z" fill="#57a8dd"/>
  <path id="Path_284" data-name="Path 284" d="M213.206,406.772h134.3V218.285H307.341V363.159H253.13V266.422H213.206Z" fill="#ecb02a"/>
  <path id="Path_285" data-name="Path 285" d="M133.717,136.832h.584V0H0V195.689H40.021V41.7H94.27V156.463C102.673,144.633,117.215,136.832,133.717,136.832Z" fill="#f16522"/>
  <path id="Path_286" data-name="Path 286" d="M347.507,195.689V0h-134.3V109.692A63.922,63.922,0,0,1,253.13,128.96V41.7h54.211V195.689Z" fill="#8bc53f"/>
  <path id="Path_287" data-name="Path 287" d="M230.373,189.063c0-.4.038-.759.038-1.2A37.229,37.229,0,0,0,160.159,170.7a28.012,28.012,0,0,0-10.9-2.2,28.45,28.45,0,0,0-26.985,19.529h-.14a25.5,25.5,0,1,0,0,51H223.292a25.486,25.486,0,0,0,7.081-49.966Z" fill="#ccc"/>
</svg>
